<?xml version="1.0" encoding="UTF-8" standalone="no"?>
<!--suppress XmlHighlighting, XmlHighlighting -->
<svg
   xmlns:dc="http://purl.org/dc/elements/1.1/"
   xmlns:cc="http://creativecommons.org/ns#"
   xmlns:rdf="http://www.w3.org/1999/02/22-rdf-syntax-ns#"
   xmlns:svg="http://www.w3.org/2000/svg"
   xmlns="http://www.w3.org/2000/svg"
   xmlns:xlink="http://www.w3.org/1999/xlink"
   xmlns:sodipodi="http://sodipodi.sourceforge.net/DTD/sodipodi-0.dtd"
   xmlns:inkscape="http://www.inkscape.org/namespaces/inkscape"
   height="299.99991"
   width="761.89545"
   fill="#000000"
   xml:space="preserve"
   version="1.1"
   style="image-rendering:optimizeQuality;shape-rendering:geometricPrecision;text-rendering:geometricPrecision"
   viewBox="0 0 2150.2213 846.65974"
   x="0px"
   y="0px"
   fill-rule="evenodd"
   clip-rule="evenodd"
   id="svg10"
   sodipodi:docname="usb.svg"
   inkscape:version="1.0.2 (e86c870879, 2021-01-15)"><metadata
     id="metadata14"><rdf:RDF><cc:Work
         rdf:about=""><dc:format>image/svg+xml</dc:format><dc:type
           rdf:resource="http://purl.org/dc/dcmitype/StillImage" /><dc:title /></cc:Work></rdf:RDF></metadata><sodipodi:namedview
     pagecolor="#ffffff"
     bordercolor="#666666"
     borderopacity="1"
     objecttolerance="10"
     gridtolerance="10"
     guidetolerance="10"
     inkscape:pageopacity="0"
     inkscape:pageshadow="2"
     inkscape:window-width="1848"
     inkscape:window-height="1016"
     id="namedview12"
     showgrid="false"
     fit-margin-top="0"
     fit-margin-left="0"
     fit-margin-right="0"
     fit-margin-bottom="0"
     inkscape:zoom="1.3333333"
     inkscape:cx="331.01367"
     inkscape:cy="74.121276"
     inkscape:window-x="0"
     inkscape:window-y="0"
     inkscape:window-maximized="1"
     inkscape:current-layer="g8"
     inkscape:document-rotation="0" /><defs
     id="defs4"><style
       type="text/css"
       id="style2">
   
    .fil0 {fill:#000000;fill-rule:nonzero}
   
  </style><path
       id="b"
       d="m 5,2 h -4 -4e-8 C 0.44771496,2 -4.37114e-8,1.552285 -4.37114e-8,1 -1.95703e-8,0.447715 0.44771496,0 0.99999996,0 H 5 h -1e-7 c 0.552285,-2.41411e-8 1,0.447715 1,1 0,0.552285 -0.447715,1 -0.9999999,1 z" /><path
       id="a"
       d="m 4,2 h -3 -4e-8 C 0.44771496,2 -4.37114e-8,1.552285 -4.37114e-8,1 -1.95703e-8,0.447715 0.44771496,0 0.99999996,0 H 4 h -10e-8 c 0.552285,-2.41411e-8 1,0.447715 1,1 0,0.552285 -0.447715,1 -0.9999999,1 z" /><path
       id="c"
       d="M 1,4 1,4 C 0.448036,4.0003204 3.2000041e-4,3.553125 0,3.00116 -2.2411944e-7,3.0007732 -2.2411944e-7,3.0003864 0,2.9999997 V 0.99999966 l 0,1.5e-7 C -8.2985598e-8,0.44771481 0.447715,-1.8900423e-7 1,-1.8900423e-7 1.552285,-2.7239693e-7 2,0.44771481 2,0.99999981 c 0,0 0,0 0,0 V 2.9999998 l 0,-1.73e-5 c 3.301e-4,0.551964 -0.446858,0.999687 -0.998822,1.00002 -3.868e-4,2e-7 -7.737e-4,2e-7 -0.00116,0 z" /></defs><g
     id="g8"
     transform="translate(-117.83787,11.644458)"><path
       id="path6"
       style="stroke-width:0.354333"
       d="M 26.345703 12.191406 C 11.846377 12.191406 0 24.041326 0 38.537109 L 0 212.91406 C 0 227.41339 11.846377 239.25977 26.345703 239.25977 L 59.794922 239.25977 L 59.794922 252.68555 L 68.146484 252.68555 L 68.146484 260.14062 C 68.146484 279.88764 84.333078 296.07031 104.08008 296.07031 L 161.10938 296.07031 C 180.87765 296.07031 197.03906 279.91598 197.03906 260.14062 L 197.03906 144.17578 C 197.03906 129.35755 209.18696 116.69745 223.99609 117.2168 L 285.99023 117.2168 L 285.99023 119.45312 L 285.99023 123.52344 C 285.99023 135.74606 295.00982 145.76758 306.00977 145.76758 L 350.75195 145.76758 L 350.75195 139.82031 L 385.5293 139.82031 L 385.5293 86.955078 L 350.75195 86.955078 L 350.75195 81.007812 L 306.00977 81.007812 C 294.98393 81.007812 285.99023 91.006431 285.99023 103.25781 L 285.99023 107.31641 L 285.99023 108.24609 L 223.99609 108.24609 C 204.22782 108.24609 188.06641 124.40043 188.06641 144.17578 L 188.06641 260.14062 C 188.06641 274.95886 175.92761 287.09766 161.10938 287.09766 L 104.08008 287.09766 C 89.254768 287.09766 77.121094 274.96949 77.121094 260.14062 L 77.121094 252.68555 L 85.46875 252.68555 L 85.46875 239.25977 L 118.91797 239.25977 C 133.41729 239.25977 145.26367 227.41339 145.26367 212.91406 L 145.26367 38.537109 C 145.26367 24.041326 133.41729 12.191406 118.91797 12.191406 L 26.345703 12.191406 z M 26.345703 27.148438 L 54.421875 27.148438 L 56.117188 32.462891 L 89.150391 32.462891 L 90.845703 27.148438 L 118.91797 27.148438 C 125.17195 27.148438 130.30664 32.283123 130.30664 38.537109 L 130.30664 212.91406 C 130.30664 219.16805 125.17195 224.30273 118.91797 224.30273 L 26.345703 224.30273 C 20.091717 224.30273 14.957031 219.16805 14.957031 212.91406 L 14.957031 195.53711 L 101.69531 195.53711 L 101.69531 183.58008 L 14.957031 183.58008 L 14.957031 38.537109 C 14.95703 32.283123 20.091717 27.148438 26.345703 27.148438 z M 306.00977 93.142578 L 339.83008 93.142578 L 339.83008 133.63086 L 306.00977 133.63086 C 300.99293 133.63086 296.91797 129.09791 296.91797 123.52344 L 296.91797 103.25781 C 296.91797 97.702512 301.0145 93.142578 306.00977 93.142578 z M 350.75195 99.091797 L 374.60742 99.091797 L 374.60742 111.36719 L 350.75195 111.36719 L 350.75195 99.091797 z M 350.75195 115.41211 L 374.60742 115.41211 L 374.60742 127.68359 L 350.75195 127.68359 L 350.75195 115.41211 z M 61.367188 203.125 C 52.97303 203.125 52.976574 215.82031 61.367188 215.82031 L 83.896484 215.82031 C 92.287104 215.82031 92.290644 203.125 83.896484 203.125 L 61.367188 203.125 z "
       transform="matrix(2.8222,0,0,2.8222,117.83787,-11.644458)" /><path
       d="m 1957.6176,44.799541 v 0 c 0,-7.788764 6.3059,-14.106484 14.0946,-14.111 0.01,-3e-6 0.011,-3e-6 0.016,0 h 253.998 v 0 c 23.3692,0.02552 42.3075,18.963773 42.333,42.333 v 677.327999 0 c -0.026,23.36923 -18.9638,42.30746 -42.333,42.333 h -183.443 v 0 c -7.7933,0 -14.111,-6.31771 -14.111,-14.111 0,-7.79329 6.3177,-14.111 14.111,-14.111 h 183.443 2e-4 c 7.7911,-0.005 14.1056,-6.32006 14.1108,-14.11114 v -677.328 0 c -0.01,-7.791092 -6.3199,-14.105708 -14.111,-14.111 h -253.998 3e-4 c -7.7888,0.0047 -14.1066,-6.305613 -14.1113,-14.094377 0,-0.0055 0,-0.01092 0,-0.01637 z"
       id="path48"
       style="fill:#000000;stroke-width:14.111" /><use
       transform="matrix(0,14.111,-14.111,0,1506.0656,383.46354)"
       xlink:href="#b"
       id="use50"
       x="0"
       y="0"
       width="100%"
       height="100%"
       style="fill:#000000" /><path
       d="m 1477.8436,228.24254 v -155.220999 10e-7 c 0.026,-23.369227 18.9638,-42.307459 42.333,-42.333 h 253.998 v 0 c 7.7933,10e-7 14.111,6.317706 14.111,14.111 0,7.793294 -6.3177,14.111 -14.111,14.111 h -253.998 -2e-4 c -7.791,0.0054 -14.1056,6.320063 -14.1108,14.111142 v 155.220996 0 c 0,7.7933 -6.3177,14.111 -14.111,14.111 -7.7933,0 -14.111,-6.3177 -14.111,-14.111 z"
       id="path52"
       style="fill:#000000;stroke-width:14.111" /><path
       d="m 1477.8436,750.34954 v -155.221 0 c 0,-7.79329 6.3177,-14.111 14.111,-14.111 7.7933,0 14.111,6.31771 14.111,14.111 v 155.221 0 c 0.01,7.79109 6.3199,14.10571 14.111,14.111 h 338.664 v 0 c 7.7933,0 14.111,6.31771 14.111,14.111 0,7.79329 -6.3177,14.111 -14.111,14.111 0,0 0,0 0,0 h -338.664 v 0 c -23.3692,-0.0254 -42.3075,-18.96377 -42.333,-42.333 z"
       id="path54"
       style="fill:#000000;stroke-width:14.111" /><path
       d="m 2126.9496,129.46554 v 0 c 0,-23.37981 18.9532,-42.333001 42.333,-42.333001 23.3798,1e-6 42.333,18.953191 42.333,42.333001 0,23.37981 -18.9532,42.333 -42.333,42.333 v 0 c -23.3692,-0.0255 -42.3075,-18.96377 -42.333,-42.333 z m 56.444,0 v 0 c 0,-7.79329 -6.3177,-14.111 -14.111,-14.111 -7.7933,0 -14.111,6.31771 -14.111,14.111 0,7.79329 6.3177,14.111 14.111,14.111 h 2e-4 c 7.7911,-0.005 14.1056,-6.32006 14.1108,-14.11114 z"
       id="path56"
       style="fill:#000000;stroke-width:14.111" /><path
       d="m 2126.9496,693.90554 v 0 c 0,-23.37981 18.9532,-42.333 42.333,-42.333 23.3798,0 42.333,18.95319 42.333,42.333 0,23.37981 -18.9532,42.333 -42.333,42.333 v 0 c -23.3692,-0.0255 -42.3075,-18.96377 -42.333,-42.333 z m 56.444,0 v 0 c 0,-7.79329 -6.3177,-14.111 -14.111,-14.111 -7.7933,0 -14.111,6.31771 -14.111,14.111 0,7.79329 6.3177,14.111 14.111,14.111 h 2e-4 c 7.7911,-0.005 14.1056,-6.32006 14.1108,-14.11114 z"
       id="path58"
       style="fill:#000000;stroke-width:14.111" /><path
       d="m 1534.2876,129.46554 v 0 c 0,-23.37981 18.9532,-42.333001 42.333,-42.333001 23.3798,1e-6 42.333,18.953191 42.333,42.333001 0,23.37981 -18.9532,42.333 -42.333,42.333 v 0 c -23.3692,-0.0255 -42.3075,-18.96377 -42.333,-42.333 z m 56.444,0 v 0 c 0,-7.79329 -6.3177,-14.111 -14.111,-14.111 -7.7933,0 -14.111,6.31771 -14.111,14.111 0,7.79329 6.3177,14.111 14.111,14.111 h 2e-4 c 7.7911,-0.005 14.1056,-6.32006 14.1108,-14.11114 z"
       id="path60"
       style="fill:#000000;stroke-width:14.111" /><path
       d="m 1534.2876,693.90554 v 0 c 0,-23.37981 18.9532,-42.333 42.333,-42.333 23.3798,0 42.333,18.95319 42.333,42.333 0,23.37981 -18.9532,42.333 -42.333,42.333 v 0 c -23.3692,-0.0255 -42.3075,-18.96377 -42.333,-42.333 z m 56.444,0 v 0 c 0,-7.79329 -6.3177,-14.111 -14.111,-14.111 -7.7933,0 -14.111,6.31771 -14.111,14.111 0,7.79329 6.3177,14.111 14.111,14.111 h 2e-4 c 7.7911,-0.005 14.1056,-6.32006 14.1108,-14.11114 z"
       id="path62"
       style="fill:#000000;stroke-width:14.111" /><path
       d="m 1844.7296,806.79354 v -169.332 0 c 0.02,-15.57812 12.6438,-28.20168 28.222,-28.222 h 155.221 -3e-4 c 15.5781,0.0201 28.2018,12.64354 28.2223,28.22172 v 169.332 0 c -0.02,15.57812 -12.6439,28.20168 -28.222,28.222 h -155.221 3e-4 c -15.5781,-0.0201 -28.2018,-12.64353 -28.2223,-28.22172 z m 183.443,-169.332 h -155.221 v 169.36022 l 155.221,-0.0282 z"
       id="path64"
       style="fill:#000000;stroke-width:14.111" /><path
       d="m 1534.2876,595.12854 v -141.11 0 c 0,-7.78876 6.3059,-14.10648 14.0946,-14.111 0.01,0 0.011,0 0.016,0 h 155.221 -3e-4 c 15.5781,0.0201 28.2018,12.64354 28.2223,28.22172 v 112.888 0 c -0.02,15.57812 -12.6438,28.20168 -28.222,28.222 h -155.221 2e-4 c -7.7887,0.005 -14.1065,-6.30562 -14.1112,-14.09438 0,-0.005 -10e-5,-0.0107 0,-0.0155 z m 28.222,-126.999 v 112.888 h 141.11 v -112.888 z"
       id="path66"
       style="fill:#000000;stroke-width:14.111" /><path
       d="m 1421.3996,566.90697 v -84.666 0 c 0.025,-23.36923 18.9637,-42.30746 42.333,-42.333 h 84.666 -3e-4 c 7.7888,-0.005 14.1066,6.30561 14.1113,14.09437 0,0.005 0,0.0109 0,0.0164 v 141.11 0 c 0,7.78877 -6.3059,14.10649 -14.0946,14.111 -0.01,2e-5 -0.011,2e-5 -0.016,0 h -84.666 v 0 c -23.3692,-0.0254 -42.3075,-18.96377 -42.333,-42.333 z m 112.888,-98.777 h -70.555 -2e-4 c -7.7911,0.005 -14.1056,6.32006 -14.1108,14.11114 v 84.666 0 c 0.01,7.79109 6.3199,14.10571 14.111,14.111 h 70.555 z"
       id="path68"
       style="fill:#000000;stroke-width:14.111" /><path
       d="m 1435.5106,383.46354 v -141.11 0 c 0.02,-15.57812 12.6438,-28.20168 28.222,-28.222 h 141.11 -3e-4 c 15.5781,0.0201 28.2018,12.64354 28.2223,28.22172 v 141.11 0 c -0.02,15.57812 -12.6439,28.20168 -28.222,28.222 h -141.11 3e-4 c -15.5781,-0.0201 -28.2018,-12.64353 -28.2223,-28.22172 z m 169.332,-141.11 h -141.11 v 141.13822 l 141.11,-0.0282 z"
       id="path70"
       style="fill:#000000;stroke-width:14.111" /><path
       d="m 1760.0636,496.35154 v -169.332 0 c 0.02,-15.57812 12.6438,-28.20168 28.222,-28.222 h 169.332 -3e-4 c 15.5781,0.0201 28.2018,12.64354 28.2223,28.22172 v 169.332 0 c -0.02,15.57812 -12.6439,28.20168 -28.222,28.222 h -169.332 3e-4 c -15.5781,-0.0201 -28.2018,-12.64353 -28.2223,-28.22172 z m 197.554,-169.332 h -169.332 v 169.36022 l 169.332,-0.0282 z"
       id="path72"
       style="fill:#000000;stroke-width:14.111" /><path
       d="m 2183.3936,214.1314 v 0 c 0.023,-1.8435 0.4066,-3.66468 1.13,-5.36048 v 0 c 0.7134,-1.71092 1.7154,-3.2866 2.9622,-4.65833 v 0 c 1.4076,-1.24002 2.9739,-2.28731 4.6577,-3.1143 v 0 c 1.7054,-0.67509 3.5272,-1.00739 5.3611,-0.97789 v 0 c 3.7367,0.0489 7.3164,1.51097 10.0188,4.09219 v 0 c 3.3075,3.33028 4.7389,8.0893 3.8172,12.69157 v 0 c -0.1379,0.93597 -0.4264,1.84343 -0.8545,2.68716 v 0 c -0.2777,0.86781 -0.7069,1.6796 -1.2677,2.39774 v 0 c -0.4863,0.80964 -1.0542,1.56731 -1.695,2.26115 v 0 c -2.7059,2.57576 -6.2833,4.03694 -10.0188,4.09219 v 0 c -1.8435,-0.0227 -3.6647,-0.40661 -5.3605,-1.13001 v 0 c -1.7091,-0.71709 -3.284,-1.71909 -4.6577,-2.96331 v 0 c -1.2443,-1.37372 -2.2463,-2.94868 -2.9634,-4.65776 v 0 c -0.7231,-1.69566 -1.1068,-3.51665 -1.1294,-5.35992 z"
       id="path74"
       style="fill:#000000;stroke-width:14.111" /><path
       d="m 2126.9496,214.1314 v 0 c 0.023,-1.8435 0.4066,-3.66468 1.13,-5.36048 v 0 c 0.7134,-1.71092 1.7154,-3.2866 2.9622,-4.65833 v 0 c 1.4076,-1.24002 2.974,-2.28731 4.6578,-3.1143 v 0 c 1.7054,-0.67509 3.5271,-1.00739 5.361,-0.97789 v 0 c 3.7425,0.0202 7.3324,1.48649 10.0188,4.09219 v 0 c 1.2472,1.37147 2.2495,2.94695 2.9633,4.65776 v 0 c 1.123,2.52138 1.422,5.33277 0.8545,8.03395 v 0 c -0.1379,0.93597 -0.4264,1.84344 -0.8545,2.68716 v 0 c -0.3046,0.89917 -0.7312,1.75232 -1.2677,2.53561 v 0 c -0.5226,0.74072 -1.0887,1.44969 -1.6956,2.12314 l -2.1083,1.69501 v 0 c -0.7912,0.53138 -1.6481,0.95753 -2.5493,1.26773 v 0 c -0.7969,0.40898 -1.6522,0.69251 -2.5356,0.8406 v 0 c -0.9327,0.17116 -1.8776,0.26775 -2.8256,0.28885 v 0 c -1.8435,-0.0227 -3.6647,-0.40661 -5.3605,-1.13001 v 0 c -3.5441,-1.28454 -6.3354,-4.07579 -7.6199,-7.61994 v 0 c -0.7237,-1.69593 -1.1078,-3.51731 -1.1306,-5.36105 z"
       id="path76"
       style="fill:#000000;stroke-width:14.111" /><path
       d="m 2183.3936,270.57554 v 0 c 0.023,-1.8435 0.4066,-3.66468 1.13,-5.36049 v 0 c 0.7134,-1.71091 1.7154,-3.28659 2.9622,-4.65832 v 0 c 1.3737,-1.24422 2.9487,-2.24622 4.6577,-2.96331 v 0 c 1.6961,-0.72308 3.5175,-1.10661 5.3611,-1.12888 v 0 c 3.7367,0.0489 7.3164,1.51097 10.0188,4.09219 v 0 c 3.3075,3.33028 4.7389,8.0893 3.8172,12.69157 v 0 c -0.1379,0.93597 -0.4264,1.84343 -0.8545,2.68716 v 0 c -0.3047,0.89917 -0.7312,1.75232 -1.2677,2.5356 v 0 c -0.5224,0.74077 -1.0884,1.44978 -1.695,2.1233 v 0 c -2.706,2.57576 -6.2834,4.03694 -10.0188,4.09219 v 0 c -1.8435,-0.0227 -3.6647,-0.40661 -5.3605,-1.13001 v 0 c -1.7091,-0.71709 -3.284,-1.71909 -4.6578,-2.96331 v 0 c -1.2442,-1.37372 -2.2462,-2.94868 -2.9633,-4.65776 v 0 c -0.7231,-1.69566 -1.1068,-3.51665 -1.1294,-5.35993 z"
       id="path78"
       style="fill:#000000;stroke-width:14.111" /><path
       d="m 2126.9496,270.57554 v 0 c 0.023,-1.8435 0.4066,-3.66468 1.13,-5.36049 v 0 c 0.7134,-1.71091 1.7154,-3.28659 2.9622,-4.65832 v 0 c 1.3737,-1.24422 2.9487,-2.24622 4.6578,-2.96331 v 0 c 1.696,-0.72308 3.5174,-1.10661 5.361,-1.12888 v 0 c 0.9471,0.0235 1.8913,0.11559 2.825,0.27558 v 0 c 0.8824,0.15945 1.7367,0.44731 2.5356,0.85442 v 0 c 0.9036,0.30448 1.7613,0.731 2.5493,1.26774 v -10e-6 c 0.736,0.52243 1.4402,1.08825 2.1089,1.69445 v 0 c 5.2228,5.65778 5.2228,14.37869 0,20.03649 v 0 c -0.6685,0.60638 -1.3725,1.17239 -2.1083,1.69502 v 0 c -0.7912,0.53138 -1.6481,0.95753 -2.5493,1.26773 v 0 c -0.7969,0.40898 -1.6522,0.69251 -2.5356,0.84059 v 0 c -0.9327,0.17155 -1.8775,0.26852 -2.8256,0.29 v 0 c -1.8435,-0.0227 -3.6647,-0.40661 -5.3605,-1.13001 v 0 c -3.5441,-1.28454 -6.3354,-4.07579 -7.6199,-7.61994 v 0 c -0.7237,-1.69594 -1.1078,-3.51732 -1.1306,-5.36106 z"
       id="path80"
       style="fill:#000000;stroke-width:14.111" /><path
       d="m 2183.3936,327.0194 v 0 c 0.023,-1.8435 0.4066,-3.66468 1.13,-5.36048 v 0 c 0.7134,-1.71092 1.7154,-3.2866 2.9622,-4.65833 v 0 c 1.3722,-1.2853 2.9456,-2.33732 4.6577,-3.1143 h 10e-5 c 1.7054,-0.67508 3.5271,-1.00738 5.361,-0.97789 v 0 c 7.7933,0 14.111,6.31771 14.111,14.111 0,7.79329 -6.3177,14.111 -14.111,14.111 0,0 0,0 0,0 v 0 c -1.8435,-0.0227 -3.6647,-0.40661 -5.3605,-1.13001 v 0 c -1.7091,-0.71709 -3.284,-1.71908 -4.6577,-2.96331 v 0 c -2.6501,-2.65688 -4.1243,-6.26527 -4.0928,-10.01768 z"
       id="path82"
       style="fill:#000000;stroke-width:14.111" /><path
       d="m 2126.9496,327.01954 v 0 c 0.023,-1.8435 0.4066,-3.66468 1.13,-5.36049 v 0 c 0.7134,-1.71091 1.7154,-3.28659 2.9622,-4.65832 v 0 c 1.3737,-1.24422 2.9487,-2.24622 4.6578,-2.96331 v 0 c 1.696,-0.72308 3.5174,-1.10661 5.361,-1.12888 v 0 c 3.7426,0.0202 7.3324,1.48649 10.0188,4.09219 v 0 c 5.2229,5.65777 5.2229,14.37868 0,20.03649 v 0 c -2.6898,2.60068 -6.2774,4.06642 -10.0188,4.09332 v 0 c -1.8435,-0.0227 -3.6646,-0.40661 -5.3605,-1.13001 v 0 c -3.5441,-1.28454 -6.3354,-4.07579 -7.6199,-7.61994 v 0 c -0.7237,-1.69593 -1.1078,-3.51731 -1.1306,-5.36105 z"
       id="path84"
       style="fill:#000000;stroke-width:14.111" /><path
       d="m 2183.3936,383.4634 v 0 c 0.023,-1.8435 0.4066,-3.66468 1.13,-5.36048 v 0 c 0.7134,-1.71092 1.7154,-3.2866 2.9622,-4.65833 v 0 c 1.4076,-1.24002 2.9739,-2.28731 4.6577,-3.1143 v 0 c 1.7054,-0.67509 3.5272,-1.00739 5.3611,-0.97789 v 0 c 3.7367,0.0489 7.3164,1.51097 10.0188,4.09219 v 0 c 3.3075,3.33028 4.7389,8.0893 3.8172,12.69157 v 0 c -0.1379,0.93597 -0.4264,1.84343 -0.8545,2.68716 v 0 c -0.3047,0.89917 -0.7312,1.75232 -1.2677,2.5356 v 0 c -0.5224,0.74078 -1.0884,1.44978 -1.695,2.1233 v 0 c -2.706,2.57577 -6.2833,4.03695 -10.0188,4.09219 v 0 c -1.8435,-0.0227 -3.6647,-0.40661 -5.3605,-1.13001 v 0 c -1.7091,-0.71709 -3.284,-1.71909 -4.6578,-2.96331 v 0 c -2.65,-2.65688 -4.1242,-6.26527 -4.0927,-10.01769 z"
       id="path86"
       style="fill:#000000;stroke-width:14.111" /><path
       d="m 2126.9496,383.4634 v 0 c 0.023,-1.8435 0.4066,-3.66468 1.13,-5.36048 v 0 c 0.7134,-1.71092 1.7154,-3.2866 2.9622,-4.65833 v 0 c 1.4076,-1.24002 2.974,-2.28731 4.6578,-3.1143 v 0 c 1.7054,-0.67509 3.5271,-1.00739 5.361,-0.97789 v 0 c 3.7425,0.0202 7.3324,1.48649 10.0188,4.09219 v 0 c 1.2472,1.37147 2.2495,2.94695 2.9633,4.65776 v 0 c 1.123,2.52138 1.422,5.33277 0.8545,8.03395 v 0 c -0.1379,0.93597 -0.4264,1.84344 -0.8545,2.68716 v 0 c -0.3046,0.89917 -0.7312,1.75232 -1.2677,2.53561 v 0 c -0.5226,0.74072 -1.0887,1.44969 -1.6956,2.12314 l -2.1083,1.69501 v 0 c -0.7912,0.53138 -1.6481,0.95753 -2.5493,1.26773 v 0 c -0.7969,0.40898 -1.6522,0.69251 -2.5356,0.8406 v 0 c -0.9327,0.17116 -1.8776,0.26775 -2.8256,0.28885 v 0 c -1.8435,-0.0227 -3.6647,-0.40661 -5.3605,-1.13001 v 0 c -3.5441,-1.28454 -6.3354,-4.07579 -7.6199,-7.61994 v 0 c -0.7237,-1.69593 -1.1078,-3.51731 -1.1306,-5.36105 z"
       id="path88"
       style="fill:#000000;stroke-width:14.111" /><path
       d="m 2183.3936,439.90754 v 0 c -0.037,-3.75372 1.4377,-7.36452 4.0922,-10.01881 v 0 c 1.3737,-1.24422 2.9487,-2.24622 4.6578,-2.96331 v 0 c 1.696,-0.72308 3.5174,-1.10661 5.361,-1.12888 v 0 c 3.7425,0.0202 7.3324,1.48649 10.0188,4.09219 v 0 c 5.5334,5.48792 5.5702,14.42243 0.082,19.95577 -2.6696,2.69175 -6.3101,4.19605 -10.1011,4.17401 v 0 c -1.8435,-0.0227 -3.6647,-0.40661 -5.3605,-1.13001 v 0 c -1.7091,-0.71709 -3.284,-1.71909 -4.6577,-2.96331 v 0 c -2.6501,-2.65687 -4.1243,-6.26527 -4.0928,-10.01768 z"
       id="path90"
       style="fill:#000000;stroke-width:14.111" /><path
       d="m 2126.9496,439.90754 v 0 c 0.023,-1.8435 0.4066,-3.66468 1.13,-5.36049 v 0 c 0.7134,-1.71091 1.7153,-3.28659 2.9622,-4.65832 v 0 c 1.3737,-1.24422 2.9486,-2.24622 4.6577,-2.96331 v 0 c 1.6961,-0.72308 3.5174,-1.10661 5.3611,-1.12888 v 0 c 0.9471,0.0235 1.8912,0.11559 2.825,0.27558 v 0 c 0.8824,0.15945 1.7367,0.44731 2.5356,0.85442 v 0 c 0.9035,0.30448 1.7612,0.731 2.5493,1.26774 v -10e-6 c 0.736,0.52243 1.4402,1.08825 2.1089,1.69445 v 0 c 3.3306,3.37895 4.7616,8.1937 3.8171,12.84327 v 0 c -0.1615,0.88185 -0.4493,1.73582 -0.8544,2.53561 v 0 c -0.3047,0.89916 -0.7312,1.75231 -1.2677,2.5356 v 0 c -0.4894,0.72267 -1.0579,1.38841 -1.695,1.98487 v 0 c -3.9752,4.1447 -10.1081,5.3812 -15.3787,3.10061 v 0 c -1.7423,-0.71609 -3.3257,-1.76986 -4.6589,-3.10061 v 0 c -2.5568,-2.66258 -4.0177,-6.18992 -4.0922,-9.88053 z"
       id="path92"
       style="fill:#000000;stroke-width:14.111" /><path
       d="m 2183.3936,496.35169 v 0 c -0.037,-3.75373 1.4377,-7.36452 4.0922,-10.01881 v 0 c 1.3723,-1.28531 2.9457,-2.33732 4.6578,-3.1143 v 0 c 1.7054,-0.67509 3.5271,-1.00739 5.361,-0.97789 h 10e-5 c 7.7932,-0.0453 14.1475,6.23563 14.1927,14.0288 0.022,3.79103 -1.4823,7.43147 -4.174,10.10108 v 0 c -2.6901,2.60023 -6.2776,4.06553 -10.0188,4.09212 v -1e-5 c -1.8435,-0.0227 -3.6647,-0.4066 -5.3605,-1.13 v 0 c -1.7091,-0.7171 -3.284,-1.71909 -4.6577,-2.96331 v 0 c -1.2443,-1.37372 -2.2462,-2.94868 -2.9633,-4.65776 v 0 c -0.7232,-1.69567 -1.1069,-3.51665 -1.1295,-5.35993 z"
       id="path94"
       style="fill:#000000;stroke-width:14.111" /><path
       d="m 2126.9496,496.35154 v 0 c 0.023,-1.8435 0.4066,-3.66468 1.13,-5.36049 v 0 c 0.7134,-1.71091 1.7154,-3.28659 2.9622,-4.65832 v 0 c 1.3737,-1.24422 2.9487,-2.24622 4.6578,-2.96331 v 0 c 1.696,-0.72308 3.5174,-1.10661 5.361,-1.12888 v 0 c 3.7426,0.0202 7.3324,1.48649 10.0188,4.09219 v 0 c 5.2229,5.65777 5.2229,14.37868 0,20.03649 v 0 c -2.6898,2.60068 -6.2774,4.06642 -10.0188,4.09332 v 0 c -1.8435,-0.0227 -3.6646,-0.40661 -5.3605,-1.13001 v 0 c -3.5441,-1.28454 -6.3354,-4.07579 -7.6199,-7.61994 v 0 c -0.7237,-1.69593 -1.1078,-3.51731 -1.1306,-5.36105 z"
       id="path96"
       style="fill:#000000;stroke-width:14.111" /><path
       d="m 2183.3936,552.79554 v 0 c -0.037,-3.75372 1.4377,-7.36452 4.0922,-10.01881 v 0 c 1.3737,-1.24422 2.9487,-2.24622 4.6578,-2.96331 v 0 c 1.696,-0.72308 3.5174,-1.10661 5.361,-1.12888 v 0 c 7.7933,0 14.111,6.3177 14.111,14.111 0,7.79329 -6.3177,14.111 -14.111,14.111 0,0 0,0 0,0 v 0 c -1.8435,-0.0227 -3.6647,-0.40661 -5.3605,-1.13001 v 0 c -1.7091,-0.71709 -3.284,-1.71909 -4.6577,-2.96331 v 0 c -2.6501,-2.65688 -4.1243,-6.26527 -4.0928,-10.01768 z"
       id="path98"
       style="fill:#000000;stroke-width:14.111" /><path
       d="m 2126.9496,552.7954 v 0 c 0.023,-1.8435 0.4066,-3.66468 1.13,-5.36048 v 0 c 0.7134,-1.71092 1.7154,-3.2866 2.9622,-4.65833 v 0 c 1.4077,-1.24002 2.974,-2.28731 4.6578,-3.1143 v 0 c 1.7054,-0.67509 3.5271,-1.00739 5.361,-0.97789 v 0 c 3.7426,0.0202 7.3324,1.48649 10.0189,4.09219 v 0 c 0.6063,0.66848 1.1723,1.37251 1.695,2.10832 v 0 c 0.5367,0.78805 0.9632,1.64576 1.2677,2.5493 v 0 c 0.4071,0.79894 0.695,1.65321 0.8544,2.5356 v 0 c 0.4136,1.80946 0.4136,3.6889 0,5.49835 v 0 c -0.1378,0.93597 -0.4264,1.84344 -0.8544,2.68716 v 0 c -0.3047,0.89917 -0.7312,1.75232 -1.2677,2.53561 v 0 c -0.5224,0.74075 -1.0884,1.44977 -1.6951,2.12328 l -2.1083,1.69501 v 0 c -0.7912,0.53138 -1.6481,0.95753 -2.5493,1.26773 v 0 c -0.7969,0.40898 -1.6522,0.69251 -2.5356,0.8406 v 0 c -0.9327,0.17116 -1.8775,0.26775 -2.8256,0.28885 v 0 c -1.8435,-0.0227 -3.6647,-0.40661 -5.3605,-1.13001 v 0 c -3.5441,-1.28454 -6.3354,-4.07579 -7.6199,-7.61994 v 0 c -0.7237,-1.69593 -1.1078,-3.51731 -1.1306,-5.36105 z"
       id="path100"
       style="fill:#000000;stroke-width:14.111" /><path
       d="m 2183.3936,609.2394 v 0 c -0.037,-3.75372 1.4376,-7.36451 4.0922,-10.01881 v 0 c 1.4076,-1.24002 2.9739,-2.28731 4.6577,-3.1143 v 0 c 1.7054,-0.67509 3.5272,-1.00739 5.3611,-0.97789 v 0 c 3.7367,0.0489 7.3164,1.51098 10.0188,4.09219 v 0 c 1.2765,1.34878 2.2825,2.92994 2.9633,4.65776 v 0 c 2.203,5.25523 1.0346,11.31939 -2.9633,15.37986 v 0 c -2.706,2.57577 -6.2834,4.03695 -10.0188,4.09219 v 0 c -1.8347,0.0245 -3.6562,-0.31256 -5.3605,-0.99214 v 0 c -1.6864,-0.81694 -3.2536,-1.85989 -4.6583,-3.10003 v 0 c -1.2443,-1.37372 -2.2463,-2.94868 -2.9633,-4.65776 v 0 c -0.7231,-1.69606 -1.1067,-3.51744 -1.1289,-5.36107 z"
       id="path102"
       style="fill:#000000;stroke-width:14.111" /><path
       d="m 2126.9496,609.23954 v 0 c 0.023,-1.8435 0.4066,-3.66468 1.13,-5.36049 v 0 c 0.7134,-1.71091 1.7153,-3.28659 2.9622,-4.65832 v 0 c 1.3737,-1.24422 2.9486,-2.24622 4.6577,-2.96331 v 0 c 1.6961,-0.72308 3.5174,-1.10661 5.3611,-1.12888 v 0 c 0.9471,0.0235 1.8912,0.11559 2.825,0.27558 v 0 c 0.8824,0.15945 1.7367,0.44731 2.5356,0.85442 v 0 c 0.9035,0.30448 1.7612,0.731 2.5493,1.26774 v -1e-5 c 0.736,0.52243 1.4402,1.08825 2.1089,1.69445 v 0 c 3.3306,3.37895 4.7616,8.1937 3.8171,12.84327 v 0 c -0.1615,0.88185 -0.4493,1.73582 -0.8544,2.53561 v 0 c -0.3047,0.89916 -0.7312,1.75231 -1.2677,2.5356 v 0 c -0.4894,0.72267 -1.0579,1.38841 -1.695,1.98487 v 0 c -3.9752,4.1447 -10.1081,5.3812 -15.3787,3.10061 v 0 c -1.7423,-0.71609 -3.3257,-1.76986 -4.6589,-3.10061 v 0 c -2.5568,-2.66258 -4.0177,-6.18992 -4.0922,-9.88053 z"
       id="path104"
       style="fill:#000000;stroke-width:14.111" /><path
       d="m 1760.0636,101.24354 v -84.665999 1e-6 c 0.02,-15.5781204 12.6438,-28.20168 28.222,-28.222 h 169.332 -3e-4 c 15.5781,0.02013 28.2018,12.64354065 28.2223,28.221718 v 84.66628 0 c 0,7.78877 -6.3059,14.10649 -14.0947,14.111 -0.01,1e-5 -0.011,1e-5 -0.016,0 h -197.554 2e-4 c -7.7888,0.005 -14.1066,-6.30561 -14.1113,-14.09437 0,-0.005 0,-0.0109 0,-0.0164 z m 197.554,-84.665999 h -169.332 v 70.555 h 169.332 z"
       id="path106"
       style="fill:#000000;stroke-width:14.111" /><path
       d="m 1689.5086,157.68754 v -56.444 0 c 0,-7.788763 6.3058,-14.106484 14.0946,-14.110999 0.01,-4e-6 0.011,-4e-6 0.017,0 h 338.6635 -3e-4 c 7.7888,-0.0047 14.1066,6.305613 14.1113,14.094379 0,0.005 0,0.0109 0,0.0164 v 56.444 0 c 0,7.78876 -6.3058,14.10648 -14.0946,14.111 -0.01,0 -0.011,0 -0.016,0 h -338.664 2e-4 c -7.7887,0.005 -14.1065,-6.30562 -14.1112,-14.09438 0,-0.005 0,-0.0108 0,-0.0161 z m 28.222,-42.333 v 28.222 h 310.442 v -28.222 z"
       id="path108"
       style="fill:#000000;stroke-width:14.111" /><path
       d="m 2028.1726,200.02054 v -42.333 0 c 0,-7.79329 6.3177,-14.111 14.111,-14.111 7.7933,0 14.111,6.31771 14.111,14.111 v 42.333 0 c 0,7.79329 -6.3177,14.111 -14.111,14.111 -7.7933,0 -14.111,-6.31771 -14.111,-14.111 z"
       id="path110"
       style="fill:#000000;stroke-width:14.111" /><use
       transform="matrix(0,14.111,-14.111,0,1999.9506,143.57654)"
       xlink:href="#a"
       id="use112"
       x="0"
       y="0"
       width="100%"
       height="100%"
       style="fill:#000000" /><use
       transform="matrix(0,14.111,-14.111,0,1943.5066,143.57654)"
       xlink:href="#a"
       id="use114"
       x="0"
       y="0"
       width="100%"
       height="100%"
       style="fill:#000000" /><use
       transform="matrix(0,14.111,-14.111,0,1887.0626,143.57654)"
       xlink:href="#a"
       id="use116"
       x="0"
       y="0"
       width="100%"
       height="100%"
       style="fill:#000000" /><use
       transform="matrix(0,14.111,-14.111,0,1830.6186,143.57654)"
       xlink:href="#a"
       id="use118"
       x="0"
       y="0"
       width="100%"
       height="100%"
       style="fill:#000000" /><use
       transform="matrix(0,14.111,-14.111,0,1774.1746,143.57654)"
       xlink:href="#a"
       id="use120"
       x="0"
       y="0"
       width="100%"
       height="100%"
       style="fill:#000000" /><use
       transform="matrix(0,14.111,-14.111,0,1717.7306,143.57654)"
       xlink:href="#a"
       id="use122"
       x="0"
       y="0"
       width="100%"
       height="100%"
       style="fill:#000000" /><path
       d="m 1534.2876,524.57354 v 0 c 0,-7.78876 6.3059,-14.10648 14.0946,-14.111 0.01,0 0.011,0 0.016,0 h 70.555 v 0 c 7.7933,0 14.111,6.31771 14.111,14.111 0,7.79329 -6.3177,14.111 -14.111,14.111 0,0 0,0 0,0 h -70.555 2e-4 c -7.7887,0.005 -14.1065,-6.30561 -14.1112,-14.09438 0,-0.005 0,-0.0109 0,-0.0164 z"
       id="path124"
       style="fill:#000000;stroke-width:14.111" /><use
       transform="matrix(0,14.111,-14.111,0,1562.5096,270.57554)"
       xlink:href="#c"
       id="use126"
       x="0"
       y="0"
       width="100%"
       height="100%"
       style="fill:#000000" /><use
       transform="matrix(0,14.111,-14.111,0,1562.5096,327.01954)"
       xlink:href="#c"
       id="use128"
       x="0"
       y="0"
       width="100%"
       height="100%"
       style="fill:#000000" /><use
       transform="matrix(0,14.111,-14.111,0,1999.9506,665.68354)"
       xlink:href="#b"
       id="use130"
       x="0"
       y="0"
       width="100%"
       height="100%"
       style="fill:#000000" /><use
       transform="matrix(0,14.111,-14.111,0,1929.3956,665.68354)"
       xlink:href="#b"
       id="use132"
       x="0"
       y="0"
       width="100%"
       height="100%"
       style="fill:#000000" /><path
       id="path301"
       style="fill:#000000;stroke-width:63.9996"
       inkscape:transform-center-x="0.15183222"
       inkscape:transform-center-y="-19.915463"
       transform="matrix(0.071894,0,0,0.19165108,1445.8096,363.21325)"
       d="m -1252.8583,-288.59202 -684.8073,395.07603 0.2578,-790.59853 z" /></g></svg>
